<svg width="250" height="250" viewBox="0 0 250 250" fill="none" xmlns="http://www.w3.org/2000/svg">
<rect x="6" y="6" width="239" height="239" fill="#FEE119"/>
<path d="M39.6169 123C44.3815 99.5173 57.6871 83.0564 66.4786 76.2042C69.0497 74.2002 72.3501 73.4819 75.4679 74.4337C80.2273 75.8866 86.1289 78.7074 89.1162 80.5C94.7162 86.5 115.783 107.333 125.616 117C129.216 126.2 121.783 128.5 117.616 128.5C110.416 127.3 95.6162 111.333 89.1162 103.5C81.9162 110.3 76.1162 132.667 74.1162 143C80.1162 147 86.6162 160.667 89.1162 167C91.1162 168.2 89.9495 201.833 89.1162 218.5C83.9162 226.1 76.9495 221.667 74.1162 218.5C71.4503 218.5 72.8033 190.398 73.9459 174.329C74.0513 172.847 73.4989 171.403 72.4315 170.37L63.7025 161.922C61.7988 160.08 58.6162 161.429 58.6162 164.078V174L39.6169 218.5C29.2174 226.9 23.6169 218 22.1166 212.5C20.6544 209.21 33.2789 182.841 41.4431 166.748C42.7084 164.254 42.1652 161.046 41.3065 158.385C38.5652 149.888 38.9347 132.278 39.6169 123Z" fill="#4C4C4C"/>
<path d="M132.616 128.5L120.116 136.5L125.616 144.5L154.616 125L142.116 109.5L132.616 117V128.5Z" fill="#4C4C4C"/>
<path d="M111.616 174V155H146.616V174H111.616Z" fill="#4C4C4C"/>
<path d="M154.616 174V155H187.616V174H154.616Z" fill="#4C4C4C"/>
<path d="M195.116 175.5V155H229.616V175.5H195.116Z" fill="#4C4C4C"/>
<path d="M111.616 198V180H128.616V198H111.616Z" fill="#4C4C4C"/>
<path d="M132.616 198V180H167.116V198H132.616Z" fill="#4C4C4C"/>
<path d="M174.116 198V180H208.116V198H174.116Z" fill="#4C4C4C"/>
<path d="M216.116 198V180H229.616V198H216.116Z" fill="#4C4C4C"/>
<path d="M111.616 222V203.5H146.616V222H111.616Z" fill="#4C4C4C"/>
<path d="M154.616 222V203.5H187.616V222H154.616Z" fill="#4C4C4C"/>
<path d="M195.116 222V203.5H229.616V222H195.116Z" fill="#4C4C4C"/>
<path d="M174.116 150V130.5H208.116V150H174.116Z" fill="#4C4C4C"/>
<path d="M214.616 150V130.5H229.616V150H214.616Z" fill="#4C4C4C"/>
<path d="M121 52C121 64.1503 111.15 74 99 74C86.8497 74 77 64.1503 77 52C77 39.8497 86.8497 30 99 30C111.15 30 121 39.8497 121 52Z" fill="#4C4C4C"/>
</svg>
