<svg width="300" height="300" viewBox="0 0 300 300" fill="none" xmlns="http://www.w3.org/2000/svg">
<rect x="7" y="36" width="287" height="228" fill="#FEE119"/>
<path d="M52.0007 149C56.7653 125.517 70.0709 109.056 78.8624 102.204C81.4335 100.2 84.7339 99.4819 87.8517 100.434C92.6111 101.887 98.5127 104.707 101.5 106.5C107.1 112.5 128.167 133.333 138 143C141.6 152.2 134.167 154.5 130 154.5C122.8 153.3 108 137.333 101.5 129.5C94.3 136.3 88.5 158.667 86.5 169C92.5 173 99 186.667 101.5 193C103.5 194.2 102.333 227.833 101.5 244.5C96.3 252.1 89.3333 247.667 86.5 244.5C83.8341 244.5 85.187 216.398 86.3297 200.329C86.4351 198.847 85.8827 197.403 84.8152 196.37L76.0863 187.922C74.1826 186.08 71 187.429 71 190.078V200L52.0007 244.5C41.6012 252.9 36.0007 244 34.5004 238.5C33.0382 235.21 45.6627 208.841 53.8269 192.748C55.0922 190.254 54.549 187.046 53.6903 184.385C50.949 175.888 51.3185 158.278 52.0007 149Z" fill="#4C4C4C"/>
<path d="M145 154.5L132.5 162.5L138 170.5L167 151L154.5 135.5L145 143V154.5Z" fill="#4C4C4C"/>
<path d="M124 200V181H159V200H124Z" fill="#4C4C4C"/>
<path d="M167 200V181H200V200H167Z" fill="#4C4C4C"/>
<path d="M207.5 201.5V181H242V201.5H207.5Z" fill="#4C4C4C"/>
<path d="M124 224V206H141V224H124Z" fill="#4C4C4C"/>
<path d="M145 224V206H179.5V224H145Z" fill="#4C4C4C"/>
<path d="M186.5 224V206H220.5V224H186.5Z" fill="#4C4C4C"/>
<path d="M228.5 224V206H242V224H228.5Z" fill="#4C4C4C"/>
<path d="M124 248V229.5H159V248H124Z" fill="#4C4C4C"/>
<path d="M167 248V229.5H200V248H167Z" fill="#4C4C4C"/>
<path d="M207.5 248V229.5H242V248H207.5Z" fill="#4C4C4C"/>
<path d="M186.5 176V156.5H220.5V176H186.5Z" fill="#4C4C4C"/>
<path d="M227 176V156.5H242V176H227Z" fill="#4C4C4C"/>
<path d="M52.0007 149C56.7653 125.517 70.0709 109.056 78.8624 102.204C81.4335 100.2 84.7339 99.4819 87.8517 100.434C92.6111 101.887 98.5127 104.707 101.5 106.5C107.1 112.5 128.167 133.333 138 143C141.6 152.2 134.167 154.5 130 154.5C122.8 153.3 108 137.333 101.5 129.5C94.3 136.3 88.5 158.667 86.5 169C92.5 173 99 186.667 101.5 193C103.5 194.2 102.333 227.833 101.5 244.5C96.3 252.1 89.3333 247.667 86.5 244.5C83.8341 244.5 85.187 216.398 86.3297 200.329C86.4351 198.847 85.8827 197.403 84.8152 196.37L76.0863 187.922C74.1826 186.08 71 187.429 71 190.078V200L52.0007 244.5C41.6012 252.9 36.0007 244 34.5004 238.5C33.0382 235.21 45.6627 208.841 53.8269 192.748C55.0922 190.254 54.549 187.046 53.6903 184.385C50.949 175.888 51.3185 158.278 52.0007 149Z" stroke="#4C4C4C"/>
<path d="M145 154.5L132.5 162.5L138 170.5L167 151L154.5 135.5L145 143V154.5Z" stroke="#4C4C4C"/>
<path d="M124 200V181H159V200H124Z" stroke="#4C4C4C"/>
<path d="M167 200V181H200V200H167Z" stroke="#4C4C4C"/>
<path d="M207.5 201.5V181H242V201.5H207.5Z" stroke="#4C4C4C"/>
<path d="M124 224V206H141V224H124Z" stroke="#4C4C4C"/>
<path d="M145 224V206H179.5V224H145Z" stroke="#4C4C4C"/>
<path d="M186.5 224V206H220.5V224H186.5Z" stroke="#4C4C4C"/>
<path d="M228.5 224V206H242V224H228.5Z" stroke="#4C4C4C"/>
<path d="M124 248V229.5H159V248H124Z" stroke="#4C4C4C"/>
<path d="M167 248V229.5H200V248H167Z" stroke="#4C4C4C"/>
<path d="M207.5 248V229.5H242V248H207.5Z" stroke="#4C4C4C"/>
<path d="M186.5 176V156.5H220.5V176H186.5Z" stroke="#4C4C4C"/>
<path d="M227 176V156.5H242V176H227Z" stroke="#4C4C4C"/>
<circle cx="107" cy="78" r="22" fill="#4C4C4C"/>
</svg>
